{
  "accessors": [
    {
      "bufferView": 2,
      "componentType": 5126,
      "count": 240,
      "max": [
        0.12067899852991104,
        1.2281030416488647,
        6.7197351455688477
      ],
      "min": [
        -0.059950001537799835,
        0.24356800317764282,
        5.6792230606079102
      ],
      "type": "VEC3"
    },
    {
      "bufferView": 2,
      "byteOffset": 2880,
      "componentType": 5126,
      "count": 240,
      "max": [
        0.77067196369171143,
        0.99023342132568359,
        0.93856102228164673
      ],
      "min": [
        -0.77066069841384888,
        -0.99020886421203613,
        -0.93855911493301392
      ],
      "type": "VEC3"
    },
    {
      "bufferView": 1,
      "componentType": 5126,
      "count": 240,
      "max": [
        0.55869400501251221,
        0.84055697917938232
      ],
      "min": [
        0.42438000440597534,
        0.71346801519393921
      ],
      "type": "VEC2"
    },
    {
      "bufferView": 0,
      "componentType": 5125,
      "count": 1320,
      "max": [
        239
      ],
      "min": [
        0
      ],
      "type": "SCALAR"
    },
    {
      "bufferView": 2,
      "byteOffset": 5760,
      "componentType": 5126,
      "count": 294,
      "max": [
        5.0827631950378418,
        1.9515260457992554,
        5.1802158355712891
      ],
      "min": [
        -5.0848608016967773,
        1.6091129779815674,
        -5.0139989852905273
      ],
      "type": "VEC3"
    },
    {
      "bufferView": 2,
      "byteOffset": 9288,
      "componentType": 5126,
      "count": 294,
      "max": [
        0.99998772144317627,
        0.99935233592987061,
        0.99968910217285156
      ],
      "min": [
        -0.99998772144317627,
        -0.99999892711639404,
        -0.99978923797607422
      ],
      "type": "VEC3"
    },
    {
      "bufferView": 1,
      "byteOffset": 1920,
      "componentType": 5126,
      "count": 294,
      "max": [
        0.97705197334289551,
        0.97948497533798218
      ],
      "min": [
        0.63160800933837891,
        0.9567829966545105
      ],
      "type": "VEC2"
    },
    {
      "bufferView": 0,
      "byteOffset": 5280,
      "componentType": 5125,
      "count": 1440,
      "max": [
        293
      ],
      "min": [
        0
      ],
      "type": "SCALAR"
    },
    {
      "bufferView": 2,
      "byteOffset": 12816,
      "componentType": 5126,
      "count": 10448,
      "max": [
        1.4319250583648682,
        2.557797908782959,
        7.5558280944824219
      ],
      "min": [
        -1.4718960523605347,
        -1.3969639539718628,
        -3.6191790103912354
      ],
      "type": "VEC3"
    },
    {
      "bufferView": 2,
      "byteOffset": 138192,
      "componentType": 5126,
      "count": 10448,
      "max": [
        1,
        1,
        1
      ],
      "min": [
        -1,
        -1,
        -1
      ],
      "type": "VEC3"
    },
    {
      "bufferView": 1,
      "byteOffset": 4272,
      "componentType": 5126,
      "count": 10448,
      "max": [
        0.9797629714012146,
        0.99451398849487305
      ],
      "min": [
        0.012519000098109245,
        0.0031789999920874834
      ],
      "type": "VEC2"
    },
    {
      "bufferView": 0,
      "byteOffset": 11040,
      "componentType": 5125,
      "count": 53178,
      "max": [
        10447
      ],
      "min": [
        0
      ],
      "type": "SCALAR"
    },
    {
      "bufferView": 2,
      "byteOffset": 263568,
      "componentType": 5126,
      "count": 2293,
      "max": [
        0.89273202419281006,
        1.5187439918518066,
        2.6833229064941406
      ],
      "min": [
        -1.1172950267791748,
        -0.973347008228302,
        -3.427886962890625
      ],
      "type": "VEC3"
    },
    {
      "bufferView": 2,
      "byteOffset": 291084,
      "componentType": 5126,
      "count": 2293,
      "max": [
        1,
        0.99935483932495117,
        0.99943804740905762
      ],
      "min": [
        -1,
        -0.99942505359649658,
        -0.99828541278839111
      ],
      "type": "VEC3"
    },
    {
      "bufferView": 1,
      "byteOffset": 87856,
      "componentType": 5126,
      "count": 2293,
      "max": [
        0.99345898628234863,
        0.98791301250457764
      ],
      "min": [
        0.013984000310301781,
        -0.0012400000123307109
      ],
      "type": "VEC2"
    },
    {
      "bufferView": 0,
      "byteOffset": 223752,
      "componentType": 5125,
      "count": 11442,
      "max": [
        2292
      ],
      "min": [
        0
      ],
      "type": "SCALAR"
    },
    {
      "bufferView": 2,
      "byteOffset": 318600,
      "componentType": 5126,
      "count": 722,
      "max": [
        0.84380501508712769,
        0.89096498489379883,
        -0.59890401363372803
      ],
      "min": [
        -0.84380501508712769,
        -0.60118198394775391,
        -3.4419140815734863
      ],
      "type": "VEC3"
    },
    {
      "bufferView": 2,
      "byteOffset": 327264,
      "componentType": 5126,
      "count": 722,
      "max": [
        0.99994468688964844,
        0.93781900405883789,
        0.049959339201450348
      ],
      "min": [
        -0.99994468688964844,
        -0.82496953010559082,
        -0.89609187841415405
      ],
      "type": "VEC3"
    },
    {
      "bufferView": 1,
      "byteOffset": 106200,
      "componentType": 5126,
      "count": 722,
      "max": [
        0.2306859940290451,
        0.66333901882171631
      ],
      "min": [
        0.0090250000357627869,
        0.22473900020122528
      ],
      "type": "VEC2"
    },
    {
      "bufferView": 0,
      "byteOffset": 269520,
      "componentType": 5125,
      "count": 3780,
      "max": [
        721
      ],
      "min": [
        0
      ],
      "type": "SCALAR"
    }
  ],
  "asset": {
    "extras": {
      "author": "Ameer_Pand Studio (https://sketchfab.com/uchiha.321abc)",
      "license": "CC-BY-4.0 (http://creativecommons.org/licenses/by/4.0/)",
      "source": "https://sketchfab.com/3d-models/chopper-d126ff3af297418f94a65f8d06184a76",
      "title": "Chopper"
    },
    "generator": "Sketchfab-7.38.0",
    "version": "2.0"
  },
  "bufferViews": [
    {
      "buffer": 0,
      "byteLength": 284640,
      "byteOffset": 0,
      "name": "floatBufferViews",
      "target": 34963
    },
    {
      "buffer": 0,
      "byteLength": 111976,
      "byteOffset": 284640,
      "byteStride": 8,
      "name": "floatBufferViews",
      "target": 34962
    },
    {
      "buffer": 0,
      "byteLength": 335928,
      "byteOffset": 396616,
      "byteStride": 12,
      "name": "floatBufferViews",
      "target": 34962
    }
  ],
  "buffers": [
    {
      "byteLength": 732544,
      "uri": "scene.bin"
    }
  ],
  "images": [
    {
      "uri": "textures/Mat_maverick.012_ec135.bmp_baseColor.png"
    },
    {
      "uri": "textures/Mat_maverick.011_ec1351.bmp_baseColor.png"
    }
  ],
  "materials": [
    {
      "doubleSided": true,
      "emissiveFactor": [
        0,
        0,
        0
      ],
      "name": "Mat_maverick.012_ec135.bmp",
      "pbrMetallicRoughness": {
        "baseColorFactor": [
          1,
          1,
          1,
          1
        ],
        "baseColorTexture": {
          "index": 0,
          "texCoord": 0
        },
        "metallicFactor": 0,
        "roughnessFactor": 0.81924261942304344
      }
    },
    {
      "doubleSided": true,
      "emissiveFactor": [
        0,
        0,
        0
      ],
      "name": "Mat_maverick.011_ec1351.bmp",
      "pbrMetallicRoughness": {
        "baseColorFactor": [
          1,
          1,
          1,
          1
        ],
        "baseColorTexture": {
          "index": 1,
          "texCoord": 0
        },
        "metallicFactor": 0,
        "roughnessFactor": 0.81924261942304344
      }
    },
    {
      "doubleSided": true,
      "emissiveFactor": [
        0,
        0,
        0
      ],
      "name": "Mat_maverick.008_ec135.bmp",
      "pbrMetallicRoughness": {
        "baseColorFactor": [
          1,
          1,
          1,
          1
        ],
        "baseColorTexture": {
          "index": 0,
          "texCoord": 0
        },
        "metallicFactor": 0.1053734756097561,
        "roughnessFactor": 0.83974847560975607
      }
    },
    {
      "doubleSided": true,
      "emissiveFactor": [
        0,
        0,
        0
      ],
      "name": "Mat_maverick.009_ec1351.bmp",
      "pbrMetallicRoughness": {
        "baseColorFactor": [
          1,
          1,
          1,
          1
        ],
        "baseColorTexture": {
          "index": 1,
          "texCoord": 0
        },
        "metallicFactor": 0.39195884146341464,
        "roughnessFactor": 0.69950457317073167
      }
    },
    {
      "doubleSided": true,
      "emissiveFactor": [
        0,
        0,
        0
      ],
      "name": "Mat_maverick.010",
      "pbrMetallicRoughness": {
        "baseColorFactor": [
          0,
          0,
          0,
          1
        ],
        "metallicFactor": 0.0017149390243902439,
        "roughnessFactor": 0.080983231707317069
      }
    }
  ],
  "meshes": [
    {
      "name": "static_rotor2_Mat_maverick.012_ec135.bmp_0",
      "primitives": [
        {
          "attributes": {
            "NORMAL": 1,
            "POSITION": 0,
            "TEXCOORD_0": 2
          },
          "indices": 3,
          "material": 0,
          "mode": 4
        }
      ]
    },
    {
      "name": "static_rotor_Mat_maverick.011_ec1351.bmp_0",
      "primitives": [
        {
          "attributes": {
            "NORMAL": 5,
            "POSITION": 4,
            "TEXCOORD_0": 6
          },
          "indices": 7,
          "material": 1,
          "mode": 4
        }
      ]
    },
    {
      "name": "chassis_Mat_maverick.008_ec135.bmp_0",
      "primitives": [
        {
          "attributes": {
            "NORMAL": 9,
            "POSITION": 8,
            "TEXCOORD_0": 10
          },
          "indices": 11,
          "material": 2,
          "mode": 4
        }
      ]
    },
    {
      "name": "chassis_Mat_maverick.009_ec1351.bmp_0",
      "primitives": [
        {
          "attributes": {
            "NORMAL": 13,
            "POSITION": 12,
            "TEXCOORD_0": 14
          },
          "indices": 15,
          "material": 3,
          "mode": 4
        }
      ]
    },
    {
      "name": "chassis_Mat_maverick.010_0",
      "primitives": [
        {
          "attributes": {
            "NORMAL": 17,
            "POSITION": 16,
            "TEXCOORD_0": 18
          },
          "indices": 19,
          "material": 4,
          "mode": 4
        }
      ]
    }
  ],
  "nodes": [
    {
      "children": [
        1
      ],
      "name": "RootNode (gltf orientation matrix)",
      "rotation": [
        -0.70710678118654746,
        -0,
        -0,
        0.70710678118654757
      ]
    },
    {
      "children": [
        2
      ],
      "name": "RootNode (model correction matrix)"
    },
    {
      "children": [
        3
      ],
      "matrix": [
        1,
        0,
        0,
        0,
        0,
        0,
        1,
        0,
        0,
        -1,
        0,
        0,
        0,
        0,
        0,
        1
      ],
      "name": "Helecopter.fbx"
    },
    {
      "children": [
        4,
        6,
        8
      ],
      "name": "RootNode"
    },
    {
      "children": [
        5
      ],
      "matrix": [
        100,
        0,
        0,
        0,
        0,
        99.999999999998664,
        1.6292067073209114e-05,
        0,
        0,
        -1.6292067073209114e-05,
        99.999999999998664,
        0,
        0,
        0,
        0,
        1
      ],
      "name": "static_rotor2"
    },
    {
      "mesh": 0,
      "name": "static_rotor2_Mat_maverick.012_ec135.bmp_0"
    },
    {
      "children": [
        7
      ],
      "matrix": [
        100,
        0,
        0,
        0,
        0,
        99.999999999998664,
        1.6292067073209114e-05,
        0,
        0,
        -1.6292067073209114e-05,
        99.999999999998664,
        0,
        0,
        0,
        0,
        1
      ],
      "name": "static_rotor"
    },
    {
      "mesh": 1,
      "name": "static_rotor_Mat_maverick.011_ec1351.bmp_0"
    },
    {
      "children": [
        9,
        10,
        11
      ],
      "matrix": [
        100,
        0,
        0,
        0,
        0,
        99.999999999998664,
        1.6292067073209114e-05,
        0,
        0,
        -1.6292067073209114e-05,
        99.999999999998664,
        0,
        0,
        0,
        0,
        1
      ],
      "name": "chassis"
    },
    {
      "mesh": 2,
      "name": "chassis_Mat_maverick.008_ec135.bmp_0"
    },
    {
      "mesh": 3,
      "name": "chassis_Mat_maverick.009_ec1351.bmp_0"
    },
    {
      "mesh": 4,
      "name": "chassis_Mat_maverick.010_0"
    }
  ],
  "samplers": [
    {
      "magFilter": 9729,
      "minFilter": 9987,
      "wrapS": 10497,
      "wrapT": 10497
    }
  ],
  "scene": 0,
  "scenes": [
    {
      "name": "OSG_Scene",
      "nodes": [
        0
      ]
    }
  ],
  "textures": [
    {
      "sampler": 0,
      "source": 0
    },
    {
      "sampler": 0,
      "source": 1
    }
  ]
}

